<svg xmlns="http://www.w3.org/2000/svg" xmlns:xlink="http://www.w3.org/1999/xlink" viewBox="0 0 204.8 70.87"><defs><style>.cls-1{isolation:isolate;}.cls-2{fill:url(#linear-gradient);}.cls-3{fill:url(#linear-gradient-2);}.cls-4{fill:#ffba1b;}.cls-5{fill:url(#linear-gradient-3);}.cls-6{fill:url(#linear-gradient-4);}.cls-7{fill:url(#linear-gradient-5);}.cls-8{fill:url(#linear-gradient-6);}.cls-9{fill:url(#linear-gradient-7);}.cls-10{fill:url(#linear-gradient-8);}.cls-11{fill:url(#linear-gradient-9);}.cls-12{fill:#d6d6d6;mix-blend-mode:multiply;}.cls-13{font-size:11px;}.cls-13,.cls-14{fill:#fff;font-family:Roboto-Bold, Roboto;font-weight:700;}.cls-14{font-size:22.48px;}</style><linearGradient id="linear-gradient" x1="35.43" y1="70.87" x2="35.43" gradientUnits="userSpaceOnUse"><stop offset="0" stop-color="#008ef4"/><stop offset="0.49" stop-color="#75c6ff"/><stop offset="1" stop-color="#0066f4"/></linearGradient><linearGradient id="linear-gradient-2" x1="2.67" y1="35.43" x2="68.2" y2="35.43" xlink:href="#linear-gradient"/><linearGradient id="linear-gradient-3" x1="27.8" y1="27.47" x2="27.8" y2="22.95" gradientUnits="userSpaceOnUse"><stop offset="0" stop-color="#c7c0bf"/><stop offset="1" stop-color="#fff"/></linearGradient><linearGradient id="linear-gradient-4" x1="26.6" y1="29.62" x2="26.6" y2="25.21" xlink:href="#linear-gradient-3"/><linearGradient id="linear-gradient-5" x1="25.61" y1="50.37" x2="25.61" y2="27.8" xlink:href="#linear-gradient-3"/><linearGradient id="linear-gradient-6" x1="43.07" y1="27.47" x2="43.07" y2="22.95" xlink:href="#linear-gradient-3"/><linearGradient id="linear-gradient-7" x1="44.27" y1="29.62" x2="44.27" y2="25.21" xlink:href="#linear-gradient-3"/><linearGradient id="linear-gradient-8" x1="45.26" y1="50.37" x2="45.26" y2="27.8" xlink:href="#linear-gradient-3"/><linearGradient id="linear-gradient-9" x1="30.94" y1="10.14" x2="39.92" y2="10.14" gradientUnits="userSpaceOnUse"><stop offset="0" stop-color="#008ef4"/><stop offset="1" stop-color="#75c6ff"/></linearGradient></defs><g class="cls-1"><g id="Layer_2" data-name="Layer 2"><g id="OBJECTS"><path class="cls-2" d="M35.43,70.87A35.44,35.44,0,1,1,70.87,35.43,35.48,35.48,0,0,1,35.43,70.87Zm0-69.34a33.91,33.91,0,1,0,33.91,33.9A33.94,33.94,0,0,0,35.43,1.53Z"/><path class="cls-3" d="M35.43,68.2A32.77,32.77,0,1,1,68.2,35.43,32.8,32.8,0,0,1,35.43,68.2Zm0-64.92A32.16,32.16,0,1,0,67.59,35.43,32.18,32.18,0,0,0,35.43,3.28Z"/><path class="cls-4" d="M10.8,26a4.85,4.85,0,0,0-.31,3.51A5.77,5.77,0,0,0,12.7,26.9a6.31,6.31,0,0,0,.64-3.49A5.27,5.27,0,0,0,10.8,26Zm2.38-2a9.09,9.09,0,0,1-1.39,4A10.72,10.72,0,0,1,13.18,24Z"/><path class="cls-4" d="M7.35,31.1A2.79,2.79,0,0,0,9.46,33a6.5,6.5,0,0,0-.16-3.59,2.79,2.79,0,0,0-2-2.1A5.59,5.59,0,0,0,7.35,31.1Zm.27-3.45a4.69,4.69,0,0,1,1.76,3.22A8.07,8.07,0,0,1,7.62,27.65Z"/><path class="cls-4" d="M14.48,29.82a2.59,2.59,0,0,0-2.76.27,3.92,3.92,0,0,0-1.62,3,3.54,3.54,0,0,0,2.59-.85A5.52,5.52,0,0,0,14.48,29.82Zm-3.55,1.42A3.32,3.32,0,0,1,14,29.86,23,23,0,0,1,10.93,31.24Z"/><path class="cls-4" d="M6.81,35.69a2.87,2.87,0,0,0,2.41,1.45,6.31,6.31,0,0,0-.8-3.46A2.76,2.76,0,0,0,6.09,32,5.5,5.5,0,0,0,6.81,35.69ZM6.47,32.3a4.68,4.68,0,0,1,2.3,2.82A8.14,8.14,0,0,1,6.47,32.3Z"/><path class="cls-4" d="M13.6,33.23a2.63,2.63,0,0,0-2.67.73,3.86,3.86,0,0,0-1.07,3.16,3.56,3.56,0,0,0,2.41-1.27A5.47,5.47,0,0,0,13.6,33.23Zm-3.24,2a3.26,3.26,0,0,1,2.79-1.86A24.6,24.6,0,0,1,10.36,35.21Z"/><path class="cls-4" d="M7.08,40.25a2.83,2.83,0,0,0,2.61,1A6.18,6.18,0,0,0,8.32,38a2.82,2.82,0,0,0-2.59-1.25A5.37,5.37,0,0,0,7.08,40.25ZM6.15,37A4.58,4.58,0,0,1,8.9,39.36,8.25,8.25,0,0,1,6.15,37Z"/><path class="cls-4" d="M13.33,36.69a2.63,2.63,0,0,0-2.5,1.17,3.79,3.79,0,0,0-.51,3.27,3.56,3.56,0,0,0,2.15-1.65A5.27,5.27,0,0,0,13.33,36.69Zm-2.84,2.48a3.23,3.23,0,0,1,2.43-2.29A23.86,23.86,0,0,1,10.49,39.17Z"/><path class="cls-4" d="M8.12,44.69a2.82,2.82,0,0,0,2.74.54,6.1,6.1,0,0,0-1.91-3,2.8,2.8,0,0,0-2.76-.78A5.38,5.38,0,0,0,8.12,44.69Zm-1.47-3A4.55,4.55,0,0,1,9.76,43.5,8.25,8.25,0,0,1,6.65,41.66Z"/><path class="cls-4" d="M13.67,40.11a2.64,2.64,0,0,0-2.26,1.58A3.77,3.77,0,0,0,11.46,45a3.61,3.61,0,0,0,1.84-2A5.34,5.34,0,0,0,13.67,40.11ZM11.29,43a3.26,3.26,0,0,1,2-2.67A24.76,24.76,0,0,1,11.29,43Z"/><path class="cls-4" d="M9.9,48.89a2.83,2.83,0,0,0,2.8.07,6.2,6.2,0,0,0-2.39-2.6,2.8,2.8,0,0,0-2.85-.3A5.34,5.34,0,0,0,9.9,48.89Zm-2-2.74a4.57,4.57,0,0,1,3.38,1.28A8.12,8.12,0,0,1,7.93,46.15Z"/><path class="cls-4" d="M14.58,43.41a2.68,2.68,0,0,0-2,2,3.86,3.86,0,0,0,.63,3.27,3.56,3.56,0,0,0,1.46-2.3A5.32,5.32,0,0,0,14.58,43.41Zm-1.84,3.31a3.29,3.29,0,0,1,1.51-3A23.26,23.26,0,0,1,12.74,46.72Z"/><path class="cls-4" d="M12.4,52.76a2.84,2.84,0,0,0,2.79-.41,6.43,6.43,0,0,0-2.84-2.18,2.79,2.79,0,0,0-2.86.19A5.49,5.49,0,0,0,12.4,52.76ZM10,50.37a4.65,4.65,0,0,1,3.57.69A8.24,8.24,0,0,1,10,50.37Z"/><path class="cls-4" d="M16.05,46.53a2.64,2.64,0,0,0-1.59,2.26,3.86,3.86,0,0,0,1.21,3.13,3.54,3.54,0,0,0,1-2.52A5.44,5.44,0,0,0,16.05,46.53Zm-1.23,3.58a3.25,3.25,0,0,1,1-3.21A23.71,23.71,0,0,1,14.82,50.11Z"/><path class="cls-4" d="M15.6,56.17a2.84,2.84,0,0,0,2.69-.87,6.54,6.54,0,0,0-3.23-1.69,2.78,2.78,0,0,0-2.8.68A5.66,5.66,0,0,0,15.6,56.17Zm-2.86-2a4.58,4.58,0,0,1,3.66.09A8.29,8.29,0,0,1,12.74,54.21Z"/><path class="cls-4" d="M18.06,49.37a2.6,2.6,0,0,0-1.16,2.51,4,4,0,0,0,1.79,2.91,3.53,3.53,0,0,0,.54-2.68A5.58,5.58,0,0,0,18.06,49.37Zm-.56,3.77a3.28,3.28,0,0,1,.36-3.36A25,25,0,0,1,17.5,53.14Z"/><path class="cls-4" d="M19.45,59A2.81,2.81,0,0,0,22,57.71a7.12,7.12,0,0,0-3.58-1.14,2.76,2.76,0,0,0-2.66,1.15A5.88,5.88,0,0,0,19.45,59Zm-3.24-1.47A4.69,4.69,0,0,1,19.89,57,8.52,8.52,0,0,1,16.21,57.56Z"/><path class="cls-4" d="M20.58,51.85a2.57,2.57,0,0,0-.67,2.69,4.15,4.15,0,0,0,2.38,2.6,3.51,3.51,0,0,0,0-2.76A6,6,0,0,0,20.58,51.85Zm.18,3.84a3.27,3.27,0,0,1-.3-3.4A26.17,26.17,0,0,1,20.76,55.69Z"/><path class="cls-4" d="M57.53,23.41a6.31,6.31,0,0,0,.64,3.49,5.77,5.77,0,0,0,2.21,2.64A4.85,4.85,0,0,0,60.07,26,5.27,5.27,0,0,0,57.53,23.41ZM59.08,28a9.09,9.09,0,0,1-1.39-4A10.9,10.9,0,0,1,59.08,28Z"/><path class="cls-4" d="M63.56,27.27a2.79,2.79,0,0,0-2,2.1A6.5,6.5,0,0,0,61.41,33a2.79,2.79,0,0,0,2.11-1.86A5.59,5.59,0,0,0,63.56,27.27Zm-2.07,3.6a4.69,4.69,0,0,1,1.76-3.22A8.07,8.07,0,0,1,61.49,30.87Z"/><path class="cls-4" d="M58.18,32.21a3.54,3.54,0,0,0,2.59.85,3.92,3.92,0,0,0-1.62-3,2.6,2.6,0,0,0-2.76-.27A5.52,5.52,0,0,0,58.18,32.21Zm-1.33-2.35a3.32,3.32,0,0,1,3.09,1.38A23,23,0,0,1,56.85,29.86Z"/><path class="cls-4" d="M64.77,32a2.78,2.78,0,0,0-2.33,1.69,6.39,6.39,0,0,0-.79,3.46,2.85,2.85,0,0,0,2.4-1.45A5.39,5.39,0,0,0,64.77,32ZM62.1,35.12a4.65,4.65,0,0,1,2.3-2.82A8.14,8.14,0,0,1,62.1,35.12Z"/><path class="cls-4" d="M58.6,35.85A3.56,3.56,0,0,0,61,37.12,3.86,3.86,0,0,0,59.94,34a2.63,2.63,0,0,0-2.67-.73A5.47,5.47,0,0,0,58.6,35.85Zm-.88-2.5a3.27,3.27,0,0,1,2.79,1.86A24.6,24.6,0,0,1,57.72,33.35Z"/><path class="cls-4" d="M65.14,36.76A2.81,2.81,0,0,0,62.55,38a6.18,6.18,0,0,0-1.37,3.25,2.83,2.83,0,0,0,2.61-1A5.37,5.37,0,0,0,65.14,36.76ZM62,39.36A4.58,4.58,0,0,1,64.72,37,8.25,8.25,0,0,1,62,39.36Z"/><path class="cls-4" d="M58.39,39.48a3.61,3.61,0,0,0,2.16,1.65A3.8,3.8,0,0,0,60,37.86a2.62,2.62,0,0,0-2.49-1.17A5.34,5.34,0,0,0,58.39,39.48ZM58,36.88a3.23,3.23,0,0,1,2.43,2.29A23.86,23.86,0,0,1,58,36.88Z"/><path class="cls-4" d="M64.67,41.49a2.81,2.81,0,0,0-2.76.78,6.15,6.15,0,0,0-1.9,3,2.82,2.82,0,0,0,2.74-.54A5.32,5.32,0,0,0,64.67,41.49Zm-3.56,2a4.55,4.55,0,0,1,3.11-1.84A8.25,8.25,0,0,1,61.11,43.5Z"/><path class="cls-4" d="M57.57,43a3.61,3.61,0,0,0,1.84,2,3.8,3.8,0,0,0,.05-3.31,2.64,2.64,0,0,0-2.26-1.58A5.25,5.25,0,0,0,57.57,43Zm0-2.63a3.26,3.26,0,0,1,2,2.67A24.76,24.76,0,0,1,57.58,40.37Z"/><path class="cls-4" d="M63.41,46.06a2.8,2.8,0,0,0-2.85.3A6.2,6.2,0,0,0,58.17,49a2.83,2.83,0,0,0,2.8-.07A5.38,5.38,0,0,0,63.41,46.06Zm-3.85,1.37a4.55,4.55,0,0,1,3.37-1.28A8,8,0,0,1,59.56,47.43Z"/><path class="cls-4" d="M56.16,46.33a3.56,3.56,0,0,0,1.46,2.3,3.86,3.86,0,0,0,.63-3.27,2.68,2.68,0,0,0-2-2A5.32,5.32,0,0,0,56.16,46.33Zm.45-2.6a3.27,3.27,0,0,1,1.52,3A24.68,24.68,0,0,1,56.61,43.73Z"/><path class="cls-4" d="M61.38,50.36a2.79,2.79,0,0,0-2.86-.19,6.43,6.43,0,0,0-2.84,2.18,2.84,2.84,0,0,0,2.79.41A5.49,5.49,0,0,0,61.38,50.36Zm-4.05.7a4.63,4.63,0,0,1,3.56-.69A8.17,8.17,0,0,1,57.33,51.06Z"/><path class="cls-4" d="M54.17,49.4a3.54,3.54,0,0,0,1,2.52,3.86,3.86,0,0,0,1.21-3.13,2.64,2.64,0,0,0-1.59-2.26A5.44,5.44,0,0,0,54.17,49.4Zm.91-2.5a3.23,3.23,0,0,1,1,3.21A25.27,25.27,0,0,1,55.08,46.9Z"/><path class="cls-4" d="M58.61,54.29a2.78,2.78,0,0,0-2.8-.68,6.54,6.54,0,0,0-3.23,1.69,2.83,2.83,0,0,0,2.69.87A5.66,5.66,0,0,0,58.61,54.29Zm-4.15,0a4.61,4.61,0,0,1,3.67-.09A8.33,8.33,0,0,1,54.46,54.3Z"/><path class="cls-4" d="M51.63,52.11a3.57,3.57,0,0,0,.55,2.68A4,4,0,0,0,54,51.88a2.6,2.6,0,0,0-1.16-2.51A5.68,5.68,0,0,0,51.63,52.11ZM53,49.78a3.28,3.28,0,0,1,.36,3.36A25,25,0,0,1,53,49.78Z"/><path class="cls-4" d="M55.12,57.72a2.76,2.76,0,0,0-2.66-1.15,7.09,7.09,0,0,0-3.58,1.14A2.81,2.81,0,0,0,51.42,59,5.88,5.88,0,0,0,55.12,57.72ZM51,57a4.69,4.69,0,0,1,3.68.53A8.5,8.5,0,0,1,51,57Z"/><path class="cls-4" d="M48.57,54.38a3.51,3.51,0,0,0,0,2.76A4.15,4.15,0,0,0,51,54.54a2.57,2.57,0,0,0-.67-2.69A6,6,0,0,0,48.57,54.38Zm1.83-2.09a3.25,3.25,0,0,1-.29,3.4A28,28,0,0,1,50.4,52.29Z"/><path class="cls-5" d="M26.79,25.33c.91-.07,1.86-.14,2.81-.14a4.54,4.54,0,0,1,3.94,2.28c-.46-2-1.89-3.21-3.23-3.21-.77,0-1.55.07-2.31.14s-1.43.13-2.16.14A4.69,4.69,0,0,1,22.06,23l.05,2.23a7.23,7.23,0,0,0,2.15.28C25.1,25.45,26,25.39,26.79,25.33Z"/><path class="cls-6" d="M22.82,27.81c.8,0,1.63-.07,2.42-.14A21.06,21.06,0,0,1,29,27.56a6.71,6.71,0,0,1,4.54,2.06,4.08,4.08,0,0,0-3.91-3.08c-.92,0-1.86.07-2.77.14s-1.71.12-2.57.13a6.28,6.28,0,0,1-4.57-1.6l.06,2.18A9.69,9.69,0,0,0,22.82,27.81Z"/><path class="cls-7" d="M33.69,50.37V31.87c-.85-1.8-3-2.6-4.77-2.76a21,21,0,0,0-3.63.11c-.8.07-1.64.14-2.46.15a8.15,8.15,0,0,1-5.3-1.57l.55,17.26c1.23,1.66,3.45,2.2,5.11,2.36.8.07,1.63.08,2.42.1a21.37,21.37,0,0,1,3.73.28A6.74,6.74,0,0,1,33.69,50.37Z"/><path class="cls-8" d="M45,24.54c-.73,0-1.46-.07-2.16-.14s-1.54-.14-2.31-.14c-1.35,0-2.77,1.2-3.23,3.21a4.54,4.54,0,0,1,3.94-2.28c.95,0,1.89.07,2.81.14s1.69.12,2.53.13h.11a7.19,7.19,0,0,0,2-.28L48.81,23A4.69,4.69,0,0,1,45,24.54Z"/><path class="cls-9" d="M46.6,26.81c-.86,0-1.72-.07-2.56-.13s-1.85-.14-2.77-.14a4.08,4.08,0,0,0-3.91,3.08,6.7,6.7,0,0,1,4.53-2.06,21.15,21.15,0,0,1,3.74.11c.79.07,1.61.14,2.42.14a9.73,9.73,0,0,0,3.07-.42l.06-2.18A6.28,6.28,0,0,1,46.6,26.81Z"/><path class="cls-10" d="M52.79,45.06l.55-17.26A8.13,8.13,0,0,1,48,29.37c-.82,0-1.66-.08-2.46-.15A21,21,0,0,0,42,29.11c-1.76.16-3.92,1-4.77,2.76v18.5a6.74,6.74,0,0,1,4.35-2.57,21.26,21.26,0,0,1,3.72-.28c.8,0,1.63,0,2.43-.1C49.34,47.26,51.56,46.72,52.79,45.06Z"/><polygon class="cls-11" points="35.44 5.87 36.82 8.68 39.92 9.13 37.68 11.32 38.21 14.41 35.44 12.95 32.66 14.41 33.19 11.32 30.94 9.13 34.05 8.68 35.44 5.87"/><polygon class="cls-12" points="39.92 9.13 35.44 10.59 37.68 11.32 39.92 9.13"/><polygon class="cls-12" points="35.44 5.87 35.44 10.59 36.82 8.68 35.44 5.87"/><polygon class="cls-12" points="30.94 9.13 35.44 10.59 34.05 8.68 30.94 9.13"/><polygon class="cls-12" points="32.66 14.41 35.44 10.59 33.19 11.32 32.66 14.41"/><polygon class="cls-12" points="38.21 14.41 35.44 10.59 35.44 12.95 38.21 14.41"/><path class="cls-4" d="M19.41,14a3.61,3.61,0,0,1,.76-2.14,4.63,4.63,0,0,0-2.33,3.85c0,2.71,2.71,4.9,6.06,4.9a7,7,0,0,0,3.42-.86C22.73,19,19.41,16.71,19.41,14Z"/><path class="cls-4" d="M51.46,14a3.68,3.68,0,0,0-.76-2.14A4.63,4.63,0,0,1,53,15.74c0,2.71-2.71,4.9-6.06,4.9a7,7,0,0,1-3.42-.86C48.14,19,51.46,16.71,51.46,14Z"/><path class="cls-4" d="M47.11,9.74a4.17,4.17,0,0,0-.87-2.47,5.32,5.32,0,0,1,2.68,4.43c0,3.11-3.12,5.63-7,5.63a8.16,8.16,0,0,1-3.94-1C43.3,15.42,47.11,12.82,47.11,9.74Z"/><path class="cls-4" d="M23.76,9.74a4.17,4.17,0,0,1,.87-2.47A5.32,5.32,0,0,0,22,11.7c0,3.11,3.12,5.63,7,5.63a8.16,8.16,0,0,0,3.94-1C27.57,15.42,23.76,12.82,23.76,9.74Z"/><text class="cls-13" transform="translate(26.53 62.48)">RIS</text><text class="cls-14" transform="translate(74.79 20.71)">REGI’S</text><text class="cls-14" transform="translate(76.22 42)">International</text><text class="cls-14" transform="translate(76.22 63.3)">School</text></g></g></g></svg>